

<svg width="99" height="111" viewBox="0 0 107 119" fill="none" xmlns="http://www.w3.org/2000/svg">
<path d="M87.2217 115H96.9454C100.289 115 103 112.303 103 108.976V39.1137C103 37.0932 101.985 35.206 100.289 34.0909L56.0866 5.00211C54.0365 3.6487 51.3637 3.66775 49.3327 5.04975L6.63451 34.0718C4.98674 35.1965 4 37.0551 4 39.047V108.967C4 112.293 6.71115 114.99 10.0546 114.99H18.1593C39.3599 114.99 57.926 100.275 62.0454 79.5826C62.2561 78.5056 62.419 77.4762 62.5435 76.5231C62.8214 74.2833 62.1124 72.015 60.4934 70.4328C56.6135 66.649 50.2236 66.8015 46.5257 70.6139C44.8013 72.3962 44.0349 74.8838 44.3128 77.3428C44.3702 77.848 44.4373 78.3626 44.5235 78.9059C47.6849 99.7598 66.0403 114.99 87.2313 114.99L87.2217 115Z" stroke="#2B7AFF" stroke-width="7.79228" stroke-linecap="round" stroke-linejoin="round"/>
<path d="M52.7239 54.8686C57.2317 54.8686 60.8861 51.2543 60.8861 46.7958C60.8861 42.3373 57.2317 38.723 52.7239 38.723C48.216 38.723 44.5617 42.3373 44.5617 46.7958C44.5617 51.2543 48.216 54.8686 52.7239 54.8686Z" stroke="#2B7AFF" stroke-width="7.79228" stroke-linecap="round" stroke-linejoin="round"/>
</svg>

