<svg width="22" height="14" viewBox="0 0 22 14" fill="none" xmlns="http://www.w3.org/2000/svg">
<g id="Group 173474">
<path id="Vector" d="M11.0001 13.3958C16.4401 13.3958 19.7976 9.25387 20.8354 7.75306C21.0577 7.43171 21.0543 7.00669 20.8285 6.68821C19.7608 5.18453 16.4309 1 11.0001 1C5.56932 1 2.23944 5.18453 1.17171 6.68821C0.945381 7.00669 0.942502 7.43171 1.1648 7.75306C2.20258 9.25387 5.56011 13.3958 11.0001 13.3958Z" stroke="#9A9A9A" stroke-width="1.15181" stroke-miterlimit="10"/>
<path id="Vector_2" d="M14.165 7.09264C14.165 8.84122 12.7475 10.2587 10.9989 10.2587C9.25031 10.2587 7.83281 8.84122 7.83281 7.09264C7.83281 5.34406 9.25031 3.92656 10.9989 3.92656C12.7475 3.92656 14.165 5.34406 14.165 7.09264Z" stroke="#9A9A9A" stroke-width="1.15"/>
</g>
</svg>
